<?xml version="1.0" encoding="utf-8"?>
<!-- Generator: Adobe Illustrator 15.0.0, SVG Export Plug-In . SVG Version: 6.00 Build 0)  -->
<!DOCTYPE svg PUBLIC "-//W3C//DTD SVG 1.1//EN" "http://www.w3.org/Graphics/SVG/1.1/DTD/svg11.dtd">
<svg version="1.1" id="Layer_1" xmlns="http://www.w3.org/2000/svg" xmlns:xlink="http://www.w3.org/1999/xlink" x="0px" y="0px"
	 width="800px" height="280px" viewBox="0 0 800 280" enable-background="new 0 0 800 280" xml:space="preserve">
<g>
	<path fill="#232F3F" d="M470.235,143.153c2.979,1.767,8.057,3.755,12.916,3.755c6.957,0,10.271-3.428,10.271-7.953
		c0-4.637-2.761-7.066-9.827-9.716c-9.718-3.533-14.246-8.724-14.246-15.127c0-8.613,7.066-15.679,18.442-15.679
		c5.409,0,10.155,1.435,13.029,3.313l-2.32,7.066c-2.099-1.324-5.963-3.204-10.932-3.204c-5.744,0-8.833,3.313-8.833,7.289
		c0,4.418,3.089,6.405,10.05,9.166c9.161,3.422,14.023,8.059,14.023,16.011c0,9.494-7.397,16.124-19.881,16.124
		c-5.85,0-11.259-1.548-15.014-3.756L470.235,143.153z"/>
	<path fill="#232F3F" d="M552.723,151.101c-2.539,1.217-8.174,3.097-15.346,3.097c-16.122,0-26.615-10.935-26.615-27.277
		c0-16.451,11.266-28.488,28.71-28.488c5.744,0,10.821,1.435,13.474,2.87l-2.208,7.4c-2.323-1.215-5.966-2.542-11.266-2.542
		c-12.257,0-18.883,9.166-18.883,20.208c0,12.368,7.951,19.986,18.551,19.986c5.522,0,9.168-1.325,11.926-2.538L552.723,151.101z"/>
	<path fill="#232F3F" d="M574.265,84.52c0,3.311-2.32,5.961-6.186,5.961c-3.533,0-5.85-2.65-5.85-5.961
		c0-3.313,2.426-6.074,6.072-6.074C571.835,78.446,574.265,81.096,574.265,84.52z M563.442,152.98V99.536h9.718v53.444H563.442z"/>
	<path fill="#232F3F" d="M594.032,128.024c0.218,13.14,8.501,18.553,18.329,18.553c6.957,0,11.262-1.217,14.795-2.761l1.771,6.957
		c-3.424,1.544-9.387,3.424-17.892,3.424c-16.453,0-26.28-10.935-26.28-27.055c0-16.122,9.495-28.71,25.067-28.71
		c17.557,0,22.084,15.236,22.084,25.064c0,1.989-0.109,3.424-0.331,4.527H594.032z M622.52,121.069
		c0.113-6.074-2.539-15.681-13.474-15.681c-9.933,0-14.133,8.944-14.904,15.681H622.52z"/>
	<path fill="#232F3F" d="M643.285,114.002c0-5.633-0.109-10.05-0.44-14.466h8.614l0.55,8.833h0.223
		c2.648-4.968,8.829-9.937,17.666-9.937c7.397,0,18.883,4.417,18.883,22.746v31.802h-9.719v-30.808
		c0-8.613-3.201-15.79-12.366-15.79c-6.294,0-11.262,4.527-13.028,9.938c-0.444,1.215-0.663,2.87-0.663,4.528v32.132h-9.719V114.002
		z"/>
	<path fill="#232F3F" d="M742.011,151.101c-2.538,1.217-8.173,3.097-15.349,3.097c-16.122,0-26.612-10.935-26.612-27.277
		c0-16.451,11.267-28.488,28.71-28.488c5.744,0,10.822,1.435,13.474,2.87l-2.207,7.4c-2.324-1.215-5.967-2.542-11.267-2.542
		c-12.257,0-18.883,9.166-18.883,20.208c0,12.368,7.952,19.986,18.552,19.986c5.521,0,9.168-1.325,11.925-2.538L742.011,151.101z"/>
	<path fill="#232F3F" d="M757.478,128.024c0.218,13.14,8.501,18.553,18.328,18.553c6.958,0,11.263-1.217,14.796-2.761l1.767,6.957
		c-3.42,1.544-9.383,3.424-17.888,3.424c-16.453,0-26.28-10.935-26.28-27.055c0-16.122,9.495-28.71,25.067-28.71
		c17.557,0,22.084,15.236,22.084,25.064c0,1.989-0.109,3.424-0.331,4.527H757.478z M785.965,121.069
		c0.113-6.074-2.539-15.681-13.474-15.681c-9.933,0-14.133,8.944-14.905,15.681H785.965z"/>
</g>
<g>
	<path fill="#F8971D" d="M231.895,176.999c-1.601,0.598-3.382,1.398-4.99,1.996c-22.909,8.968-47.031,13.153-69.369,13.153
		c-35.463,0-69.746-9.77-97.474-25.898c-2.577-1.398-4.38,1.173-2.175,2.979c25.71,23.319,59.602,37.267,97.473,37.267
		c23.516,0,50.636-6.586,71.545-19.131c2.814-1.592,5.589-3.38,8.192-5.391C238.681,179.399,235.472,175.418,231.895,176.999z"/>
	<path fill="#F8971D" d="M253.231,164.644c-1.797-2.2-14.945-4.182-26.326-0.801c-3.174,1.009-5.959,2.407-8.56,4.192
		c-1.979,1.395-1.579,3.18,0.399,2.976c2.202-0.404,4.986-0.608,8.161-0.998v0.019c6.994-0.602,15.158-0.802,17.16,1.784
		c2.786,3.396-3.18,18.154-5.779,24.518c-0.803,1.985,0.998,2.802,2.799,1.388c8.968-7.58,12.752-21.301,12.945-28.491v-1.194
		C254.03,166.425,253.63,165.245,253.231,164.644z"/>
</g>
<g>
	<path fill="none" d="M294.096,107.242c-8.58,0.006-8.98,11.547-8.98,18.735c0,7.365-0.202,22.712,8.782,22.712h0.206
		c8.563-0.2,8.97-12.542,8.97-19.928c0-4.987-0.204-10.971-1.81-15.757C300.07,109.023,297.688,107.424,294.096,107.242z"/>
	<path fill="none" d="M172.091,140.512c0,5.001,2.604,8.381,6.984,8.381c0.596,0,0.998-0.204,1.604-0.204
		c2.575-0.598,4.779-2.396,6.362-5.18c2.198-3.983,2.198-7.587,2.198-12.171v-2.377c-2.981,0-5.985,0.2-8.56,0.796
		C175.89,131.158,172.091,134.142,172.091,140.512z"/>
	<path fill="none" d="M38.54,128.962c-2.98,0-5.979,0.2-8.565,0.796c-4.779,1.4-8.56,4.384-8.56,10.754
		c0,5.001,2.579,8.381,6.963,8.381c0.604,0,1.198-0.204,1.597-0.204c2.586-0.598,4.99-2.396,6.371-5.18
		c2.397-3.983,2.195-7.587,2.195-12.171V128.962z"/>
	<path fill="#232F3F" d="M260.614,143.51c-6.584-3.582-14.346-4.784-21.532-4.584l19.531-27.921
		c1.805-2.581,2.781-4.187,2.781-5.363v-7.188c0-1.2-0.976-2.178-2.172-2.178h-37.672c-1.198,0-2.206,0.978-2.206,2.178v8.387
		c0,1.388,1.007,2.182,2.206,2.182h19.718l-22.722,32.487c-1.398,2.201-1.398,4.58-1.398,5.782v8.37
		c0,1.195,1.398,2.798,2.801,1.996c12.752-6.782,28.102-6.181,39.871,0c1.379,0.598,2.781-0.801,2.781-1.996v-8.768
		C262.403,145.71,262,144.516,260.614,143.51z"/>
	<path fill="#232F3F" d="M54.702,138.123v-17.932c0-7.589,0.575-14.55-4.987-19.733c-4.587-4.184-11.765-5.788-17.353-5.788h-2.388
		c-10.161,0.597-20.934,4.985-23.332,17.537c-0.399,1.604,0.798,2.202,1.603,2.398l11.166,1.404c1.2-0.204,1.799-1.2,2.003-2.198
		c0.98-4.387,4.584-6.571,8.56-6.972h0.807c2.378,0,4.963,0.987,6.365,2.985c1.596,2.382,1.394,5.584,1.394,8.363v1.608
		c-2.601,0.196-5.581,0.395-8.565,0.796c-4.577,0.599-9.167,1.38-12.942,3.183c-7.389,2.983-12.372,9.369-12.372,18.73
		c0,11.772,7.582,17.753,17.156,17.753c3.178,0,5.764-0.393,8.157-0.99c3.792-1.206,6.968-3.402,10.754-7.372
		c2.202,2.982,2.801,4.385,6.582,7.568c1.005,0.401,1.983,0.401,2.787-0.196c2.402-2.011,6.58-5.584,8.764-7.591
		c0.998-0.802,0.797-1.981,0.22-2.987C56.88,145.893,54.702,143.51,54.702,138.123z M36.345,143.51
		c-1.38,2.783-3.785,4.582-6.371,5.18c-0.399,0-0.993,0.204-1.597,0.204c-4.384,0-6.963-3.38-6.963-8.381
		c0-6.371,3.781-9.354,8.56-10.754c2.586-0.596,5.585-0.796,8.565-0.796v2.377C38.54,135.923,38.742,139.527,36.345,143.51z"/>
	<path fill="#232F3F" d="M372.846,102.239c-3.204-5.185-8.387-6.972-13.375-6.972c-7.959,0-12.563,3.79-15.754,11.955h-0.198v-8.969
		c-0.197-1-0.993-1.798-1.976-1.798h-10.771c-1.2,0-1.976,0.798-2.176,1.998v58.804c0,1.202,0.976,2.011,2.176,2.207h11.366
		c1.184,0,2.182-1.005,2.208-2.207v-31.479c0-4.006,0.197-7.591,1.776-11.173c1.4-2.978,3.986-4.781,6.786-4.781
		c7.964,0,7.187,9.365,7.187,15.954v31.683c0,0.998,0.984,1.784,1.985,1.978h11.543c1.204,0,2.009-0.979,2.209-1.978v-36.869
		C375.831,114.809,375.831,107.021,372.846,102.239z"/>
	<path fill="#232F3F" d="M294.103,95.269v-0.002h-0.206c-16.546,0-25.907,14.355-25.907,32.691c0,18.13,9.161,32.686,25.907,32.686
		h0.206c15.734-0.204,25.92-14.151,25.9-32.089C320.003,110.028,310.846,95.48,294.103,95.269z M294.103,148.689h-0.206
		c-8.984,0-8.782-15.347-8.782-22.712c0-7.188,0.401-18.729,8.98-18.735c3.592,0.182,5.974,1.781,7.167,5.763
		c1.606,4.786,1.81,10.771,1.81,15.757C303.073,136.147,302.667,148.489,294.103,148.689z"/>
	<path fill="#232F3F" d="M129.035,95.267c-6.764,0-12.949,3.395-15.73,10.975c-3.204-7.58-7.782-10.975-14.952-10.975
		c-7.187,0-12.37,3.395-15.153,10.975h-0.202v-7.79c0-1.003-0.998-1.979-2.202-1.979H70.231c-1.182,0-2.186,0.976-2.186,2.189
		v58.799c0,0.998,0.801,1.807,2.01,2.003h11.547c1.197,0,2.198-1.005,2.198-2.207v-31.078c0-6.79-0.401-16.355,7.966-16.355
		c7.973,0,6.982,9.766,6.982,16.355v31.078c0,1.202,0.991,1.988,1.985,2.182h11.57c1.202,0,2.184-0.979,2.184-2.182v-31.1
		c0-3.378,0-8.367,1.193-11.348c1.204-3.003,3.987-4.786,6.792-4.786c3.378,0,5.982,1.204,6.764,5.188
		c0.601,2.178,0.399,8.563,0.399,10.968v31.078c0,1.202,0.803,2.011,2.001,2.207h11.372c1.38,0,2.378-1.005,2.378-2.207v-37.066
		c0-6.38,0.603-13.554-2.983-18.533C139.207,97.252,134.022,95.267,129.035,95.267z"/>
	<path fill="#232F3F" d="M205.38,138.123v-17.932c0-7.589,0.395-14.55-5.187-19.733c-4.375-4.184-11.552-5.788-17.138-5.788h-2.395
		v0.002c-10.368,0.604-20.917,4.992-23.319,17.555c-0.377,1.584,0.598,2.182,1.598,2.378l11.173,1.404
		c0.995-0.204,1.801-1.2,1.98-2.198c1.001-4.387,4.402-6.571,8.589-6.972h0.576c2.408,0,5.187,0.987,6.587,2.985
		c1.601,2.382,1.397,5.584,1.397,8.363v1.608c-2.577,0.196-5.577,0.395-8.56,0.796c-4.588,0.599-9.374,1.38-13.175,3.183
		c-7.163,2.983-12.146,9.369-12.146,18.73c0,11.772,7.565,17.753,17.132,17.753c3.202,0,5.785-0.393,8.188-0.99
		c3.781-1.206,6.961-3.402,10.742-7.372c2.204,2.982,2.799,4.385,6.585,7.568c0.983,0.401,1.981,0.401,2.787-0.196
		c2.384-2.011,6.582-5.584,8.758-7.591c1.013-0.802,0.805-1.981,0-2.987C207.583,145.893,205.38,143.51,205.38,138.123z
		 M189.24,131.339c0,4.584,0,8.188-2.198,12.171c-1.583,2.783-3.787,4.582-6.362,5.18c-0.606,0-1.009,0.204-1.604,0.204
		c-4.38,0-6.984-3.38-6.984-8.381c0-6.371,3.799-9.354,8.589-10.754c2.575-0.596,5.579-0.796,8.56-0.796V131.339z"/>
</g>
<line fill="none" stroke="#232F3F" stroke-width="2.8468" stroke-miterlimit="10" x1="423.914" y1="72.347" x2="423.914" y2="172.934"/>
</svg>
